# xmcd
#
# Track frame offsets: 
#        150
#        13715
#        28898
#        45946
#        59315
#        76092
#        94008
#        111371
#        126962
#        141733
#        156829
#        174227
#        187710
#        201195
#        218872
#        234024
#        252148
#        268657
#
# Disc length: 3833 seconds
#
# Revision: 1
# Processed by: cddbd v1.5.1PL0 Copyright (c) Steve Scherf et al.
# Submitted via: ExactAudioCopy v0.95b2
#
DISCID=ee0ef712
DTITLE=Попса - Музыкальные Новости N16
DYEAR=2005
DGENRE=Pop
TTITLE0=Массква - 7 Этаж
TTITLE1=Алла Пугачёва и Максим Галкин - Любовь, Как Состояние
TTITLE2=Наташа Власова - Может Быть
TTITLE3=А. Цой и Д. Билан - Кто Выдумал Любовь
TTITLE4=Жанна Фриске - Где-То Летом
TTITLE5=Л. Гурченко и Б. Моисеев - Ненавижу
TTITLE6=А. Варум - Музыка
TTITLE7=С. Зверев - Алла
TTITLE8=Лолита - Мачо
TTITLE9=А. Губин - Мама Мария
TTITLE10=Блестящие - Брат Мой Десантник
TTITLE11=Лаванда - Пляж
TTITLE12=Инна Маликова - Кофе И Шоколад
TTITLE13=Mr.Credo - Медляк (Remix)
TTITLE14=A Sortie - Ивушка
TTITLE15=Данко, Александр Маршал and Дмитрий Дюжев - Когда Мужчина Влюбл
TTITLE15=ён
TTITLE16=Revolvers - Целуй Меня
TTITLE17=Краски - А Сердечко Плачет
EXTD=
EXTT0=
EXTT1=
EXTT2=
EXTT3=
EXTT4=
EXTT5=
EXTT6=
EXTT7=
EXTT8=
EXTT9=
EXTT10=
EXTT11=
EXTT12=
EXTT13=
EXTT14=
EXTT15=
EXTT16=
EXTT17=
PLAYORDER=
